<?xml version="1.0" encoding="UTF-8" standalone="no"?><!DOCTYPE svg PUBLIC "-//W3C//DTD SVG 1.1//EN" "http://www.w3.org/Graphics/SVG/1.1/DTD/svg11.dtd"><!-- Generated by graphviz version 2.40.1 (20161225.0304)
 --><!-- Title: G Pages: 1 --><svg xmlns="http://www.w3.org/2000/svg" xmlns:xlink="http://www.w3.org/1999/xlink" width="910pt" height="54pt" viewBox="0.00 0.00 909.96 54.25">
<g id="graph0" class="graph" transform="scale(1 1) rotate(0) translate(4 50.2496)">
<title>G</title>
<polygon fill="#ffffff" stroke="transparent" points="-4,4 -4,-50.2496 905.9593,-50.2496 905.9593,4 -4,4"/>
<!-- Framework -->
<g id="node1" class="node">
<title>Framework</title>
<ellipse fill="none" stroke="#000000" cx="55.5483" cy="-23.1281" rx="55.5966" ry="18"/>
<text text-anchor="middle" x="55.5483" y="-18.9281" font-family="Times,serif" font-size="14.00" fill="#000000">Framework</text>
</g>
<!-- Middleware 1 -->
<g id="node2" class="node">
<title>Middleware 1</title>
<ellipse fill="none" stroke="#000000" cx="248.0304" cy="-23.1281" rx="64.8678" ry="18"/>
<text text-anchor="middle" x="248.0304" y="-18.9281" font-family="Times,serif" font-size="14.00" fill="#000000">Middleware 1</text>
</g>
<!-- Framework&#45;&gt;Middleware 1 -->
<g id="edge1" class="edge">
<title>Framework-&gt;Middleware 1</title>
<path fill="none" stroke="#000000" d="M107.8906,-29.2107C129.2247,-29.9069 154.2217,-30.0584 177.1506,-29.6654"/>
<polygon fill="#000000" stroke="#000000" points="177.251,-33.1641 187.1753,-29.4551 177.1041,-26.1657 177.251,-33.1641"/>
<text text-anchor="middle" x="130.4411" y="-33.4107" font-family="Times,serif" font-size="14.00" fill="#000000">Request</text>
</g>
<!-- Middleware 1&#45;&gt;Framework -->
<g id="edge8" class="edge">
<title>Middleware 1-&gt;Framework</title>
<path fill="none" stroke="#000000" d="M187.1278,-16.8C165.1641,-16.2523 140.3488,-16.2379 118.2352,-16.7568"/>
<polygon fill="#000000" stroke="#000000" points="117.8527,-13.266 107.9541,-17.0435 118.0478,-20.2633 117.8527,-13.266"/>
<text text-anchor="middle" x="160.3003" y="-4.2" font-family="Times,serif" font-size="14.00" fill="#000000">Response</text>
</g>
<!-- Middleware 2 -->
<g id="node3" class="node">
<title>Middleware 2</title>
<ellipse fill="none" stroke="#000000" cx="449.8981" cy="-23.1281" rx="64.8678" ry="18"/>
<text text-anchor="middle" x="449.8981" y="-18.9281" font-family="Times,serif" font-size="14.00" fill="#000000">Middleware 2</text>
</g>
<!-- Middleware 1&#45;&gt;Middleware 2 -->
<g id="edge2" class="edge">
<title>Middleware 1-&gt;Middleware 2</title>
<path fill="none" stroke="#000000" d="M309.1452,-29.3878C331.083,-29.9563 356.0098,-30.0305 378.7273,-29.6102"/>
<polygon fill="#000000" stroke="#000000" points="379.0712,-33.1035 388.991,-29.3824 378.9157,-26.1053 379.0712,-33.1035"/>
<text text-anchor="middle" x="331.6957" y="-33.5878" font-family="Times,serif" font-size="14.00" fill="#000000">Request</text>
</g>
<!-- Middleware 2&#45;&gt;Middleware 1 -->
<g id="edge7" class="edge">
<title>Middleware 2-&gt;Middleware 1</title>
<path fill="none" stroke="#000000" d="M388.7833,-16.8685C366.8454,-16.2999 341.9187,-16.2258 319.2011,-16.646"/>
<polygon fill="#000000" stroke="#000000" points="318.8573,-13.1527 308.9374,-16.8739 319.0127,-20.151 318.8573,-13.1527"/>
<text text-anchor="middle" x="361.9558" y="-4.2685" font-family="Times,serif" font-size="14.00" fill="#000000">Response</text>
</g>
<!-- Middleware 3 -->
<g id="node4" class="node">
<title>Middleware 3</title>
<ellipse fill="none" stroke="#000000" cx="651.7658" cy="-23.1281" rx="64.8678" ry="18"/>
<text text-anchor="middle" x="651.7658" y="-18.9281" font-family="Times,serif" font-size="14.00" fill="#000000">Middleware 3</text>
</g>
<!-- Middleware 2&#45;&gt;Middleware 3 -->
<g id="edge3" class="edge">
<title>Middleware 2-&gt;Middleware 3</title>
<path fill="none" stroke="#000000" d="M511.0129,-29.3878C532.9507,-29.9563 557.8775,-30.0305 580.595,-29.6102"/>
<polygon fill="#000000" stroke="#000000" points="580.9389,-33.1035 590.8587,-29.3824 580.7834,-26.1053 580.9389,-33.1035"/>
<text text-anchor="middle" x="533.5634" y="-33.5878" font-family="Times,serif" font-size="14.00" fill="#000000">Request</text>
</g>
<!-- Middleware 3&#45;&gt;Middleware 2 -->
<g id="edge6" class="edge">
<title>Middleware 3-&gt;Middleware 2</title>
<path fill="none" stroke="#000000" d="M590.651,-16.8685C568.7131,-16.2999 543.7864,-16.2258 521.0688,-16.646"/>
<polygon fill="#000000" stroke="#000000" points="520.7249,-13.1527 510.8051,-16.8739 520.8804,-20.151 520.7249,-13.1527"/>
<text text-anchor="middle" x="563.8235" y="-4.2685" font-family="Times,serif" font-size="14.00" fill="#000000">Response</text>
</g>
<!-- Application -->
<g id="node5" class="node">
<title>Application</title>
<ellipse fill="none" stroke="#000000" cx="845.3295" cy="-23.1281" rx="56.76" ry="18"/>
<text text-anchor="middle" x="845.3295" y="-18.9281" font-family="Times,serif" font-size="14.00" fill="#000000">Application</text>
</g>
<!-- Middleware 3&#45;&gt;Application -->
<g id="edge4" class="edge">
<title>Middleware 3-&gt;Application</title>
<path fill="none" stroke="#000000" d="M712.7448,-29.4496C734.7512,-30.0002 759.6323,-30.0202 781.8477,-29.5097"/>
<polygon fill="#000000" stroke="#000000" points="781.9461,-33.0084 791.8473,-29.2378 781.7558,-26.011 781.9461,-33.0084"/>
<text text-anchor="middle" x="735.2953" y="-33.6496" font-family="Times,serif" font-size="14.00" fill="#000000">Request</text>
</g>
<!-- Application&#45;&gt;Middleware 3 -->
<g id="edge5" class="edge">
<title>Application-&gt;Middleware 3</title>
<path fill="none" stroke="#000000" d="M791.9249,-17.0209C770.6732,-16.3469 745.9032,-16.2029 723.1488,-16.5891"/>
<polygon fill="#000000" stroke="#000000" points="722.7806,-13.0959 712.8559,-16.8038 722.9267,-20.0944 722.7806,-13.0959"/>
<text text-anchor="middle" x="765.0974" y="-4.4209" font-family="Times,serif" font-size="14.00" fill="#000000">Response</text>
</g>
</g>
</svg>